<?xml version="1.0" encoding="utf-8"?>
<!-- Generator: Adobe Illustrator 24.0.1, SVG Export Plug-In . SVG Version: 6.00 Build 0)  -->
<svg version="1.1" id="Layer_1" xmlns="http://www.w3.org/2000/svg" xmlns:xlink="http://www.w3.org/1999/xlink" x="0px" y="0px"
	 viewBox="0 0 332.09 481.09" style="enable-background:new 0 0 332.09 481.09;" xml:space="preserve">
<style type="text/css">
	.st0{fill:#eaeae5;}
</style>
<g>
	<path class="st0" d="M323.31,219.31l-61.52-61.52c-0.37-0.37-0.74-0.72-1.12-1.06L112.73,8.79c-11.72-11.72-30.71-11.72-42.43,0
		L8.79,70.31c-11.72,11.72-11.72,30.71,0,42.43L136.6,240.55L8.79,368.36c-11.72,11.72-11.72,30.71,0,42.43l61.52,61.52
		c11.72,11.72,30.71,11.72,42.43,0l147.94-147.94c0.38-0.34,0.75-0.7,1.12-1.06l61.52-61.52c5.86-5.86,8.79-13.55,8.79-21.24
		C332.1,232.86,329.17,225.17,323.31,219.31z"/>
</g>
</svg>
