<?xml version="1.0" encoding="utf-8"?>
<!-- Generator: Adobe Illustrator 24.0.1, SVG Export Plug-In . SVG Version: 6.00 Build 0)  -->
<svg version="1.1" id="Layer_1" xmlns="http://www.w3.org/2000/svg" xmlns:xlink="http://www.w3.org/1999/xlink" x="0px" y="0px"
	 viewBox="0 0 332.09 481.09" style="enable-background:new 0 0 332.09 481.09;" xml:space="preserve">
<style type="text/css">
	.st0{fill:#eaeae5;}
</style>
<g>
	<path class="st0" d="M8.79,261.79l61.52,61.52c0.37,0.37,0.74,0.72,1.12,1.06l147.94,147.94c11.72,11.72,30.71,11.72,42.43,0
		l61.52-61.52c11.72-11.72,11.72-30.71,0-42.43L195.49,240.55L323.3,112.73c11.72-11.72,11.72-30.71,0-42.43L261.79,8.79
		c-11.72-11.72-30.71-11.72-42.43,0L71.42,156.72c-0.38,0.34-0.75,0.7-1.12,1.06L8.79,219.31c-5.86,5.86-8.79,13.55-8.79,21.24
		C-0.01,248.23,2.92,255.92,8.79,261.79z"/>
</g>
</svg>
