<?xml version="1.0" encoding="utf-8"?>
<!-- Generator: Adobe Illustrator 24.0.1, SVG Export Plug-In . SVG Version: 6.00 Build 0)  -->
<svg version="1.1" id="Layer_1" xmlns="http://www.w3.org/2000/svg" xmlns:xlink="http://www.w3.org/1999/xlink" x="0px" y="0px"
	 viewBox="0 0 469.09 482.09" style="enable-background:new 0 0 469.09 482.09;" xml:space="preserve">
<style type="text/css">
	.st0{fill:#eaeae5;}
</style>
<g>
	<path class="st0" d="M332.49,241.55L460.3,113.73c11.72-11.72,11.72-30.71,0-42.43L398.79,9.79c-11.72-11.72-30.71-11.72-42.43,0
		L235.05,131.1L112.73,8.79c-11.72-11.72-30.71-11.72-42.43,0L8.79,70.31c-11.72,11.72-11.72,30.71,0,42.43L136.6,240.55
		L8.79,368.36c-11.72,11.72-11.72,30.71,0,42.43l61.52,61.52c11.72,11.72,30.71,11.72,42.43,0l121.31-121.31l122.31,122.31
		c11.72,11.72,30.71,11.72,42.43,0l61.52-61.52c11.72-11.72,11.72-30.71,0-42.43L332.49,241.55z"/>
</g>
</svg>
